<svg viewBox="-38 0 512 512" xmlns="http://www.w3.org/2000/svg"><path d="m420.636719 92.035156h-12.628907v-20.386718c0-16.738282-13.613281-30.355469-30.355468-30.355469h-131.304688v-25.550781c0-8.679688-7.0625-15.742188-15.742187-15.742188h-24.828125c-8.679688 0-15.742188 7.0625-15.742188 15.742188v25.550781h-131.308594c-16.734374 0-30.355468 13.617187-30.355468 30.355469v20.386718h-12.628906c-8.679688 0-15.742188 7.0625-15.742188 15.746094v24.824219c0 8.679687 7.0625 15.742187 15.742188 15.742187h13.507812c3.078125 24.621094 40.394531 323.207032 41.753906 334.105469 2.105469 16.84375 16.496094 29.546875 33.472656 29.546875h227.429688c16.980469 0 31.367188-12.703125 33.472656-29.546875.621094-4.960937 18.226563-145.867187 18.882813-151.109375.515625-4.109375-2.402344-7.859375-6.511719-8.371094-4.105469-.515625-7.859375 2.398438-8.375 6.511719l-15.597656 124.824219h-118.085938c-4.140625 0-7.5 3.355468-7.5 7.5 0 4.144531 3.359375 7.5 7.5 7.5h116.210938l-1.410156 11.285156c-1.167969 9.351562-9.15625 16.40625-18.585938 16.40625h-227.429688c-9.429687 0-17.417968-7.054688-18.585937-16.40625l-1.410156-11.285156h116.210937c4.140625 0 7.5-3.355469 7.5-7.5 0-4.144532-3.359375-7.5-7.5-7.5h-118.085937l-38.234375-305.960938h347.640625l-18.261719 146.136719c-.515625 4.109375 2.402344 7.855469 6.511719 8.371094 4.097656.507812 7.859375-2.402344 8.375-6.511719l18.492187-147.996094h13.507813c8.683593 0 15.746093-7.0625 15.746093-15.742187v-24.824219c0-8.683594-7.0625-15.746094-15.746093-15.746094zm-215.601563-76.292968c0-.410157.335938-.742188.742188-.742188h24.828125c.410156 0 .742187.332031.742187.742188v25.550781h-26.3125zm-161.660156 55.90625c0-8.464844 6.886719-15.355469 15.351562-15.355469h318.929688c8.464844 0 15.355469 6.890625 15.355469 15.355469v20.386718h-349.636719zm378.007812 60.957031c0 .410156-.332031.742187-.742187.742187-11.4375 0-392.585937 0-404.894531 0-.410156 0-.746094-.332031-.746094-.742187v-24.824219c0-.410156.335938-.746094.746094-.746094h404.894531c.410156 0 .742187.335938.742187.746094zm0 0"/><path d="m104.898438 183.148438c-4.136719.203124-7.328126 3.722656-7.125 7.855468l11.019531 224.472656c.195312 4.015626 3.511719 7.136719 7.484375 7.136719.125 0 .25-.003906.375-.011719 4.136718-.203124 7.324218-3.722656 7.125-7.859374l-11.019532-224.46875c-.203124-4.140626-3.707031-7.335938-7.859374-7.125zm0 0"/><path d="m163.65625 183.140625c-4.140625.074219-7.4375 3.496094-7.359375 7.636719l4.128906 224.472656c.078125 4.09375 3.421875 7.363281 7.5 7.363281.046875 0 .09375 0 .140625-.003906 4.140625-.074219 7.4375-3.496094 7.359375-7.636719l-4.132812-224.472656c-.078125-4.140625-3.515625-7.449219-7.636719-7.359375zm0 0"/><path d="m210.691406 190.636719v224.472656c0 4.144531 3.355469 7.503906 7.5 7.503906 4.144532 0 7.5-3.359375 7.5-7.503906v-224.472656c0-4.140625-3.355468-7.5-7.5-7.5-4.144531 0-7.5 3.359375-7.5 7.5zm0 0"/><path d="m265.089844 190.5-4.132813 224.472656c-.078125 4.140625 3.21875 7.5625 7.359375 7.636719.050782.003906.097656.003906.144532.003906 4.078124 0 7.417968-3.269531 7.496093-7.363281l4.128907-224.472656c.078124-4.140625-3.21875-7.5625-7.359376-7.636719-4.140624-.089844-7.5625 3.21875-7.636718 7.359375zm0 0"/><path d="m323.625 190.273438-11.015625 224.46875c-.203125 4.140624 2.984375 7.65625 7.121094 7.859374.125.007813.25.011719.375.011719 3.972656 0 7.289062-3.121093 7.484375-7.136719l11.019531-224.472656c.199219-4.136718-2.988281-7.652344-7.125-7.855468-4.132813-.199219-7.65625 2.984374-7.859375 7.125zm0 0"/></svg>